# xmcd CD database file
#
# Track frame offsets:
#	150
#	19412
#	38190
#	53587
#	66040
#	82505
#	96792
#	120405
#	134965
#	156092
#	179930
#	196025
#	205105
#	219597
#	240985
#	254617
#	272920
#
# Disc length: 3835 seconds
#
# Revision: 0
# Processed by: cddbd v1.4PL0 Copyright (c) Steve Scherf et al.
# Submitted via: CDex 1.40Beta8
#
DISCID=f10ef911
DTITLE=Blues Down Town - State of blue
DYEAR=1997
DGENRE=Blues
TTITLE0=Young fashioned ways
TTITLE1=West palm groove
TTITLE2=Like Wolf - like Sonny
TTITLE3=Stick to your lover
TTITLE4=Woman wanted
TTITLE5=It's too late
TTITLE6=Rain
TTITLE7=Horton's briefcase
TTITLE8=New life
TTITLE9=Answering machine blues
TTITLE10=Cross my fingers
TTITLE11=Mad harp
TTITLE12=Going home
TTITLE13=Used to be
TTITLE14=Love at first sight
TTITLE15=Lifetime blues
TTITLE16=State of blue
EXTD=YEAR: 1997 ID3G: 0
EXTT0=
EXTT1=
EXTT2=
EXTT3=
EXTT4=
EXTT5=
EXTT6=
EXTT7=
EXTT8=
EXTT9=
EXTT10=
EXTT11=
EXTT12=
EXTT13=
EXTT14=
EXTT15=
EXTT16=
PLAYORDER=
